<svg version="1.1" xmlns="http://www.w3.org/2000/svg" xmlns:xlink="http://www.w3.org/1999/xlink" width="27" height="30"><defs/><g><path fill="rgb(255,255,255)" stroke="none" paint-order="stroke fill markers" fill-rule="evenodd" d=" M 18.828968048095703 7.259741306304932 C 22.095684051513672 7.259741306304932 24.18442153930664 10.398080825805664 24.18442153930664 10.398080825805664 C 24.18442153930664 10.398080825805664 20.997909545898438 12.114575386047363 20.997909545898438 15.843132019042969 C 20.997909545898438 20.268383502960205 25.001052856445312 21.55575442314148 25.001052856445312 21.55575442314148 C 25.001052856445312 21.55575442314148 21.841434478759766 28.998640060424805 18.293384552001953 28.998640060424805 C 16.29848861694336 28.998640060424805 16.16449737548828 27.859052896499634 13.513568878173828 27.859052896499634 C 11.210731506347656 27.859052896499634 10.434249877929688 28.998640060424805 8.680252075195312 28.998640060424805 C 5.3332366943359375 28.998640060424805 1.0086097717285156 21.743926286697388 1.0086097717285156 15.843132019042969 C 1.0086097717285156 9.714236736297607 5.3866424560546875 7.259741306304932 8.131412506103516 7.259741306304932 C 10.54144287109375 7.259741306304932 11.54556655883789 8.66827654838562 13.486865997314453 8.66827654838562 C 15.120319366455078 8.66827654838562 16.40558624267578 7.259741306304932 18.828968048095703 7.259741306304932 Z M 18.266586303710938 1.0105996131896973 C 18.748573303222656 4.014924049377441 16.00389862060547 7.729253053665161 12.723640441894531 7.608547687530518 C 12.241653442382812 3.7863640785217285 15.776351928710938 1.2116222381591797 18.266586303710938 1.0105996131896973 Z"/></g></svg>