<svg version="1.1" xmlns="http://www.w3.org/2000/svg" xmlns:xlink="http://www.w3.org/1999/xlink" width="16" height="15"><defs/><g><path fill="rgb(255,255,255)" stroke="none" paint-order="stroke fill markers" fill-rule="evenodd" d=" M 9.521499633789062 2.3573553562164307 C 9.521499633789062 2.3573553562164307 13.60751724243164 6.443438529968262 13.60751724243164 6.443438529968262 C 14.171710968017578 7.007495164871216 14.171710968017578 7.922194004058838 13.60751724243164 8.486709594726562 C 13.043323516845703 9.050307273864746 12.128654479980469 9.050307273864746 11.564556121826172 8.486709594726562 C 11.564556121826172 8.486709594726562 7.478538513183594 4.4006264209747314 7.478538513183594 4.4006264209747314 C 6.914344787597656 3.836110830307007 6.914344787597656 2.9214119911193848 7.478538513183594 2.3573553562164307 C 8.04263687133789 1.792839765548706 8.957305908203125 1.792839765548706 9.521499633789062 2.3573553562164307 Z M 13.60751724243164 6.443438529968262 C 14.171710968017578 7.007495164871216 14.171710968017578 7.922194004058838 13.60751724243164 8.486709594726562 C 13.60751724243164 8.486709594726562 9.521499633789062 12.572333812713623 9.521499633789062 12.572333812713623 C 8.957305908203125 13.136390447616577 8.04263687133789 13.136390447616577 7.478538513183594 12.572333812713623 C 6.914344787597656 12.007818222045898 6.914344787597656 11.093578338623047 7.478538513183594 10.529521703720093 C 7.478538513183594 10.529521703720093 11.564556121826172 6.443438529968262 11.564556121826172 6.443438529968262 C 12.128654479980469 5.878922939300537 13.043323516845703 5.878922939300537 13.60751724243164 6.443438529968262 Z M 2.4999771118164062 6.000087261199951 C 2.4999771118164062 6.000087261199951 12.500015258789062 6.000087261199951 12.500015258789062 6.000087261199951 C 13.328472137451172 6.000087261199951 13.999954223632812 6.671539545059204 13.999954223632812 7.499954700469971 C 13.999954223632812 8.328369855880737 13.328472137451172 8.99982213973999 12.500015258789062 8.99982213973999 C 12.500015258789062 8.99982213973999 2.4999771118164062 8.99982213973999 2.4999771118164062 8.99982213973999 C 1.6716156005859375 8.99982213973999 1.0000381469726562 8.328369855880737 1.0000381469726562 7.499954700469971 C 1.0000381469726562 6.671539545059204 1.6716156005859375 6.000087261199951 2.4999771118164062 6.000087261199951 Z"/></g></svg>