<svg version="1.1" xmlns="http://www.w3.org/2000/svg" xmlns:xlink="http://www.w3.org/1999/xlink" width="112" height="39"><defs/><g><path fill="rgb(38,39,45)" stroke="none" paint-order="stroke fill markers" fill-rule="evenodd" d=" M 48.45804214477539 25.957221269607544 C 48.15229415893555 26.155031204223633 48.00800323486328 27.665454626083374 47.143211364746094 27.659488201141357 C 45.60903549194336 27.648473262786865 46.914615631103516 24.439454555511475 47.29808807373047 23.156673192977905 C 47.52229690551758 22.405821561813354 48.26539993286133 20.038527727127075 49.61265563964844 15.990078926086426 C 51.94038391113281 15.625209093093872 54.20183181762695 15.03545093536377 54.814090728759766 14.441103219985962 C 56.34817123413086 12.951791763305664 57.22383499145508 10.611117362976074 57.22383499145508 10.611117362976074 C 57.22383499145508 10.611117362976074 55.128517150878906 11.288995027542114 50.831356048583984 12.102723598480225 C 50.831356048583984 12.102723598480225 53.279151916503906 4.041165590286255 53.279151916503906 4.041165590286255 C 53.279151916503906 4.041165590286255 53.08002471923828 3.691441297531128 52.62178421020508 3.9167885780334473 C 51.78884506225586 4.32617712020874 50.53733825683594 4.997629404067993 50.097503662109375 5.530477046966553 C 49.561920166015625 6.180358409881592 48.50934982299805 9.225988864898682 47.419490814208984 12.69477653503418 C 47.32717514038086 12.709463119506836 47.23676681518555 12.724149703979492 47.143211364746094 12.738836288452148 C 45.73692321777344 12.959135055541992 44.42466735839844 13.150978565216064 43.16944122314453 13.30977725982666 C 43.16944122314453 13.30977725982666 43.524017333984375 12.617671966552734 43.524017333984375 12.617671966552734 C 44.006195068359375 12.068760871887207 45.3858757019043 9.591776609420776 46.14471435546875 8.258510112762451 C 47.605838775634766 5.692488431930542 47.1807861328125 3.9108221530914307 46.705665588378906 3.2526795864105225 C 46.11743927001953 2.4375741481781006 44.51078414916992 2.2884135246276855 43.5181999206543 2.9038732051849365 C 42.893924713134766 3.2907729148864746 42.47907638549805 4.024643182754517 42.068328857421875 5.334043979644775 C 41.277732849121094 7.855546951293945 39.79848861694336 12.617671966552734 39.79848861694336 12.617671966552734 C 39.79848861694336 12.617671966552734 39.61118698120117 13.131243467330933 39.414730072021484 13.694382190704346 C 36.0209846496582 13.944054126739502 32.81425476074219 13.877046585083008 28.95397186279297 13.377243757247925 C 24.943866729736328 12.85816478729248 21.722164154052734 12.100428819656372 18.654098510742188 13.59019923210144 C 17.963542938232422 13.925236940383911 17.399444580078125 14.289647817611694 16.94988250732422 14.630192995071411 C 16.70125961303711 12.210119247436523 14.151039123535156 11.208218812942505 12.738075256347656 11.036569356918335 C 10.520496368408203 10.767621278762817 8.355083465576172 11.31194281578064 6.081523895263672 13.555318593978882 C 5.217685699462891 14.408058404922485 3.4063720703125 16.41782569885254 2.529754638671875 19.576359272003174 C 1.5191459655761719 23.21633744239807 2.0260238647460938 25.843400239944458 3.4420394897460938 27.522719383239746 C 5.258598327636719 29.67613983154297 8.974494934082031 29.889554262161255 11.268177032470703 28.37637710571289 C 12.30062484741211 27.695286750793457 13.677635192871094 26.111889362335205 14.378204345703125 23.101139545440674 C 14.653434753417969 23.1442813873291 15.052070617675781 23.136020183563232 15.375938415527344 23.10664701461792 C 16.827716827392578 22.973549842834473 17.510929107666016 21.827996253967285 17.605533599853516 21.731156587600708 C 17.370929718017578 22.615564346313477 17.065753936767578 23.556882619857788 16.474666595458984 25.305963039398193 C 16.108837127685547 26.38818073272705 15.900650024414062 27.512163400650024 16.554489135742188 28.343791246414185 C 17.175331115722656 29.133195161819458 18.019332885742188 29.129064559936523 18.745746612548828 29.150176525115967 C 20.46255111694336 29.19928479194641 22.577800750732422 27.049994945526123 22.577800750732422 27.049994945526123 C 22.577800750732422 27.049994945526123 22.782840728759766 29.024422645568848 25.672378540039062 29.150176525115967 C 27.946224212646484 29.248393058776855 29.087772369384766 27.496558904647827 29.087772369384766 27.496558904647827 C 29.087772369384766 27.496558904647827 29.136028289794922 29.015702486038208 31.11480712890625 29.150176525115967 C 33.03131103515625 29.27960205078125 34.59562301635742 27.170700311660767 35.648860931396484 25.142115831375122 C 35.648860931396484 25.142115831375122 33.67504119873047 31.0777907371521 33.67504119873047 31.0777907371521 C 33.67504119873047 31.0777907371521 32.76399612426758 34.01786136627197 33.61982345581055 35.63338565826416 C 34.304656982421875 36.92626404762268 36.126365661621094 37.12590980529785 36.99058532714844 36.94278645515442 C 37.89724349975586 36.75094294548035 39.26280975341797 36.325031995773315 40.675106048583984 33.739275217056274 C 42.35404968261719 30.665189504623413 42.67629623413086 23.365039110183716 42.70223617553711 21.944571018218994 C 42.75106430053711 19.260597705841064 42.60801315307617 18.808067321777344 42.33345031738281 16.357702493667603 C 43.30018997192383 16.357243537902832 44.370784759521484 16.35586667060852 45.5816650390625 16.35586667060852 C 45.808258056640625 16.35586667060852 46.05058670043945 16.349441289901733 46.30292892456055 16.33842635154724 C 45.14507293701172 20.194572687149048 44.13980484008789 23.74689030647278 43.91416549682617 24.414670944213867 C 42.38008499145508 28.9551203250885 45.81951141357422 29.33513569831848 46.32476806640625 29.338807344436646 C 49.77296829223633 29.3612961769104 50.64939498901367 27.02062177658081 50.64939498901367 27.02062177658081 C 50.64939498901367 27.02062177658081 51.051082611083984 26.181650638580322 50.97412109375 25.957221269607544 C 50.754966735839844 25.318813800811768 49.11550521850586 25.531769275665283 48.45804214477539 25.957221269607544 Z M 45.200958251953125 5.241793870925903 C 45.43956756591797 4.486811637878418 46.01186752319336 3.838766098022461 46.267452239990234 4.529035568237305 C 46.52294158935547 5.2202229499816895 45.97505569458008 7.612759351730347 44.514217376708984 9.84833288192749 C 43.99007797241211 10.650587558746338 43.03993225097656 12.290436506271362 42.83918380737305 12.593347311019897 C 43.33070755004883 11.14947247505188 44.65250015258789 6.975728750228882 45.200958251953125 5.241793870925903 Z M 13.714160919189453 21.927589654922485 C 13.494911193847656 21.927589654922485 12.453880310058594 21.62605571746826 12.234821319580078 20.34924077987671 C 12.054576873779297 19.300067901611328 13.047924041748047 19.277579069137573 13.385429382324219 19.622254848480225 C 14.20206069946289 20.456636428833008 13.714160919189453 21.927589654922485 13.714160919189453 21.927589654922485 Z M 29.169883728027344 24.428898572921753 C 28.80462646484375 25.662571668624878 28.10434341430664 26.5694682598114 27.59002685546875 26.896244764328003 C 26.771106719970703 27.41670060157776 25.38045883178711 27.340513944625854 25.27088165283203 25.810814380645752 C 25.22043228149414 25.10539937019348 25.461902618408203 23.843271017074585 26.301898956298828 21.96797776222229 C 27.115001678466797 20.153725624084473 27.954139709472656 19.21057152748108 28.85021209716797 19.32944107055664 C 30.092086791992188 19.494206190109253 29.863967895507812 20.842618227005005 29.863967895507812 20.842618227005005 C 29.949798583984375 21.4993839263916 29.623641967773438 22.895986318588257 29.169883728027344 24.428898572921753 Z M 32.23794937133789 27.060550928115845 C 31.249847412109375 27.071106910705566 31.839313507080078 25.15909719467163 32.0252799987793 24.60605549812317 C 32.33713150024414 23.679423809051514 34.10066604614258 18.14487624168396 34.10066604614258 18.14487624168396 C 34.10066604614258 18.14487624168396 32.09117889404297 17.921364784240723 31.470909118652344 18.359667539596558 C 31.183090209960938 18.562984943389893 30.59438705444336 19.461161375045776 30.59438705444336 19.461161375045776 C 30.59438705444336 19.461161375045776 30.603351593017578 18.227947235107422 29.069366455078125 18.14487624168396 C 27.53528594970703 18.061805248260498 26.287879943847656 18.6873619556427 25.088062286376953 19.822818517684937 C 22.202816009521484 22.553605318069458 22.267093658447266 25.95492649078369 22.267093658447266 25.95492649078369 C 22.267093658447266 25.95492649078369 20.517292022705078 27.85041379928589 19.512977600097656 26.83061408996582 C 19.080867767333984 26.391852378845215 19.917144775390625 24.213189363479614 20.280017852783203 23.0960910320282 C 20.846023559570312 21.35251808166504 21.814002990722656 18.14487624168396 21.814002990722656 18.14487624168396 C 21.814002990722656 18.14487624168396 19.584407806396484 18.0182044506073 18.965091705322266 18.359667539596558 C 17.95696258544922 18.915462970733643 17.288150787353516 20.8940212726593 16.34296417236328 21.683884143829346 C 15.643634796142578 22.268134832382202 14.666786193847656 22.141921997070312 14.525070190429688 22.03131365776062 C 14.525070190429688 22.03131365776062 14.937725067138672 20.81095027923584 14.42636489868164 19.639695167541504 C 13.840904235839844 18.29908537864685 12.421836853027344 18.490928888320923 11.906089782714844 18.824589729309082 C 11.248626708984375 19.250041723251343 11.104145050048828 20.14179277420044 11.376514434814453 21.040887117385864 C 11.650409698486328 21.945029973983765 12.679901123046875 22.820258617401123 13.385429382324219 22.973549842834473 C 13.203563690185547 23.834091901779175 12.738075256347656 24.867201328277588 11.861457824707031 25.931060791015625 C 10.380401611328125 27.727872610092163 8.29690933227539 27.593857526779175 7.067623138427734 25.832385301589966 C 6.113567352294922 24.465615034103394 6.355419158935547 20.89218544960022 7.816638946533203 17.86537218093872 C 9.277572631835938 14.838558912277222 10.691680908203125 13.850886106491089 12.278308868408203 13.495654344558716 C 14.158573150634766 13.07433295249939 15.88510513305664 14.374095678329468 15.441741943359375 16.534400463104248 C 15.441741943359375 16.534400463104248 15.36783218383789 16.84373664855957 15.36783218383789 16.84373664855957 C 15.36783218383789 16.84373664855957 15.322723388671875 17.040169715881348 15.410175323486328 17.128748178482056 C 15.668907165527344 17.390352964401245 16.412391662597656 17.627633094787598 17.558517456054688 16.35586667060852 C 19.297637939453125 14.425957679748535 23.795738220214844 14.91841721534729 29.830589294433594 15.717918157577515 C 33.3232307434082 16.180086612701416 35.207786560058594 16.31043004989624 38.574066162109375 16.34576964378357 C 38.574066162109375 16.34576964378357 36.58517837524414 22.326422214508057 36.58517837524414 22.326422214508057 C 35.59774398803711 24.49957776069641 34.055747985839844 27.041733741760254 32.23794937133789 27.060550928115845 Z M 40.10814666748047 30.803335189819336 C 39.025535583496094 33.449674129486084 38.129940032958984 34.06972336769104 37.4609375 34.33132815361023 C 36.840667724609375 34.5745747089386 36.54970169067383 34.387779712677 36.39577865600586 33.966917276382446 C 36.19483947753906 33.41708827018738 36.566009521484375 32.16000843048096 36.566009521484375 32.16000843048096 C 36.566009521484375 32.16000843048096 41.44615173339844 17.082852602005005 41.44615173339844 17.082852602005005 C 42.18667984008789 22.124022722244263 41.168155670166016 28.21207094192505 40.10814666748047 30.803335189819336 Z M 107.59023666381836 14.46726369857788 C 109.1244125366211 12.977952241897583 110.00007629394531 10.521620988845825 110.00007629394531 10.521620988845825 C 110.00007629394531 10.521620988845825 108.14994812011719 11.521226644515991 101.86189651489258 12.55066442489624 C 101.86189651489258 12.55066442489624 102.20817565917969 12.05269742012024 102.20817565917969 12.05269742012024 C 102.69035339355469 11.503786325454712 104.09425735473633 9.039193868637085 104.82887268066406 7.693535566329956 C 106.42894744873047 4.762644052505493 105.86494445800781 3.345388650894165 105.38982391357422 2.687246084213257 C 104.80159759521484 1.872140645980835 103.19494247436523 1.72298002243042 102.20235824584961 2.338439702987671 C 101.57808303833008 2.725339412689209 101.16323471069336 3.4596686363220215 100.75248718261719 4.76906943321228 C 99.9618911743164 7.29057240486145 98.48264694213867 12.05269742012024 98.48264694213867 12.05269742012024 C 98.48264694213867 12.05269742012024 98.3033561706543 12.543780088424683 98.111572265625 13.09269118309021 C 92.7247428894043 13.768274068832397 88.3694076538086 13.792598724365234 82.82598495483398 13.07479190826416 C 78.81587982177734 12.556171894073486 75.81323623657227 12.010932445526123 72.74517059326172 13.500702857971191 C 72.16028213500977 13.784337520599365 71.66790008544922 14.089543104171753 71.25677108764648 14.382815837860107 C 71.18247985839844 12.991720914840698 70.30452728271484 11.071449995040894 66.53512954711914 10.8970468044281 C 64.60765838623047 10.808009386062622 61.97885513305664 11.707103729248047 59.905948638916016 13.664550065994263 C 59.02313232421875 14.498472690582275 57.230796813964844 16.52705717086792 56.35417938232422 19.685131788253784 C 55.343666076660156 23.325568914413452 55.85044860839844 25.95263171195984 57.26655960083008 27.631950855255127 C 59.08302307128906 29.78537130355835 62.052001953125 29.418665647506714 63.3220100402832 28.607690811157227 C 64.37095642089844 27.937156438827515 64.85589981079102 27.117920398712158 65.07514953613281 26.692468404769897 C 65.51336288452148 27.54383134841919 65.98800659179688 28.09503722190857 66.59711837768555 28.58336615562439 C 67.65817642211914 29.43427014350891 70.28583526611328 29.735804080963135 72.26032257080078 26.66860270500183 C 72.72829055786133 25.941616773605347 73.10108184814453 24.719417572021484 73.3378791809082 23.770297050476074 C 73.37736129760742 23.77672243118286 73.79344940185547 23.93689799308777 74.23261642456055 23.93001365661621 C 74.67168807983398 23.923129320144653 75.13422012329102 23.74826717376709 75.3719711303711 23.5660617351532 C 74.89408493041992 25.42161989212036 75.04295349121094 27.069730043411255 76.03954315185547 28.15791416168213 C 77.68796920776367 29.95839762687683 83.115234375 30.06441640853882 84.53115463256836 23.348975658416748 C 85.39527893066406 22.99053120613098 85.99990844726562 22.595370292663574 86.62351608276367 21.753645420074463 C 86.81024551391602 21.85094404220581 87.74665832519531 22.449422359466553 89.13320541381836 21.774757385253906 C 89.32327270507812 21.682048320770264 88.53439331054688 23.624808073043823 87.943115234375 25.373429536819458 C 87.5773811340332 26.455647230148315 87.36909866333008 27.58008885383606 88.0229377746582 28.41125774383545 C 88.64397048950195 29.201120615005493 89.48816299438477 29.209381818771362 90.21438598632812 29.21764302253723 C 92.55870819091797 29.24380350112915 94.73175048828125 25.22977638244629 94.73175048828125 25.22977638244629 C 94.73175048828125 25.22977638244629 93.5318374633789 28.58336615562439 93.5318374633789 28.58336615562439 C 93.5318374633789 28.58336615562439 93.3686637878418 29.205251216888428 94.02612686157227 29.205251216888428 C 95.12189865112305 29.205251216888428 95.42116165161133 29.24380350112915 96.02388381958008 29.24380350112915 C 96.46219253540039 29.24380350112915 96.59980773925781 28.58336615562439 96.59980773925781 28.58336615562439 C 96.59980773925781 28.58336615562439 97.68117904663086 25.604743242263794 97.68117904663086 25.604743242263794 C 97.68117904663086 25.604743242263794 99.43441390991211 25.589597702026367 99.43441390991211 27.094054698944092 C 99.43441390991211 28.370869636535645 100.0839614868164 29.185057163238525 101.53726577758789 29.221773624420166 C 102.4842643737793 29.246098279953003 104.03646469116211 29.115295886993408 104.78519439697266 28.17581343650818 C 104.97488021850586 27.937615394592285 105.39506912231445 27.113330841064453 105.46096801757812 26.926994800567627 C 105.61117172241211 26.501083850860596 106.01991653442383 25.901228666305542 105.15951156616211 25.73738145828247 C 104.84451293945312 25.677717208862305 103.81731033325195 25.81723976135254 103.81731033325195 25.81723976135254 C 103.81731033325195 25.81723976135254 103.15984725952148 25.81723976135254 102.872314453125 26.66860270500183 C 102.72773742675781 27.095890522003174 102.50247955322266 27.732462167739868 102.06417083740234 27.732462167739868 C 101.18583679199219 27.732462167739868 102.06417083740234 26.455647230148315 100.53009033203125 25.39178776741028 C 99.98201370239258 25.011772394180298 98.42723846435547 24.98790669441223 98.33864212036133 24.966335773468018 C 98.84847640991211 24.90575361251831 99.61751937866211 25.047570943832397 101.09895706176758 24.32792830467224 C 102.41388320922852 23.689520835876465 104.69392776489258 22.838616847991943 104.91308212280273 19.434082984924316 C 105.05041122436523 17.299938678741455 101.09895706176758 17.093867540359497 99.56497192382812 19.434082984924316 C 99.56497192382812 19.434082984924316 100.57825088500977 16.21083664894104 100.57825088500977 16.21083664894104 C 102.92552947998047 16.008437156677246 106.74928665161133 15.283746004104614 107.59023666381836 14.46726369857788 Z M 103.88511657714844 4.676360368728638 C 104.12382125854492 3.9213781356811523 104.69602584838867 3.2733325958251953 104.95161056518555 3.9640610218048096 C 105.20709991455078 4.654789447784424 104.65921401977539 7.047784805297852 103.1983757019043 9.283358335494995 C 102.67423629760742 10.085613012313843 101.72409057617188 11.725461959838867 101.52334213256836 12.027913808822632 C 102.01486587524414 10.584497928619385 103.3366584777832 6.410295248031616 103.88511657714844 4.676360368728638 Z M 65.9516716003418 22.649986028671265 C 65.9516716003418 22.649986028671265 65.33979415893555 20.390087842941284 65.9516716003418 19.245452165603638 C 66.49908065795898 18.221521854400635 67.24895477294922 18.70663809776306 67.2665023803711 19.458407640457153 C 67.31466293334961 21.49708914756775 65.9516716003418 22.649986028671265 65.9516716003418 22.649986028671265 Z M 83.2826042175293 21.55308175086975 C 83.06364059448242 21.559048175811768 82.82464981079102 21.56180191040039 82.56010055541992 21.56180191040039 C 81.46442413330078 21.56180191040039 80.2475357055664 21.321309089660645 80.14959335327148 21.98725390434265 C 79.93034362792969 23.47702431678772 82.85316467285156 23.62939763069153 82.8889274597168 23.628938674926758 C 82.87643432617188 23.697323083877563 82.84305572509766 23.834091901779175 82.83294677734375 23.90247631072998 C 81.68357849121094 27.945417642593384 78.61551284790039 27.945417642593384 78.17720413208008 26.2426917552948 C 77.93344497680664 25.296324968338013 78.13467025756836 23.853826999664307 78.83466720581055 22.200209379196167 C 80.09580612182617 19.22158646583557 81.90263748168945 19.008630990982056 82.56010055541992 19.647038459777832 C 83.1741714477539 20.24322199821472 83.3218002319336 20.886219024658203 83.2826042175293 21.55308175086975 Z M 86.64430618286133 20.587438821792603 C 86.67434692382812 20.564949989318848 85.65563201904297 20.02475905418396 86.1578369140625 19.027907133102417 C 86.37317657470703 18.600619316101074 87.06449508666992 18.59786558151245 87.25809097290039 19.133925914764404 C 87.40848541259766 19.550657749176025 87.09177017211914 20.30380415916443 86.64430618286133 20.587438821792603 Z M 95.94396591186523 20.659953832626343 C 95.94396591186523 20.659953832626343 94.38032150268555 24.65286898612976 92.82278060913086 26.16145658493042 C 92.82278060913086 26.16145658493042 91.27124786376953 27.844447374343872 90.75712203979492 26.881099224090576 C 90.47416687011719 26.35100531578064 91.49011611938477 23.743218660354614 91.85279846191406 22.625661373138428 C 92.4190902709961 20.88208842277527 93.28245162963867 18.212801694869995 93.28245162963867 18.212801694869995 C 93.28245162963867 18.212801694869995 90.88768005371094 17.94477152824402 90.23021697998047 18.79567551612854 C 90.08325576782227 18.98660111427307 89.34978485107422 20.118386030197144 88.69632720947266 20.71089792251587 C 88.02980422973633 21.314883708953857 87.49116897583008 21.17306637763977 87.30730056762695 20.99315571784973 C 87.30730056762695 20.99315571784973 88.46525192260742 19.687885522842407 87.78327941894531 18.593276023864746 C 87.27516174316406 17.777711629867554 86.33140563964844 17.88418936729431 85.85657119750977 18.123305320739746 C 85.34149169921875 18.383074283599854 85.01180648803711 18.947589874267578 85.1624870300293 19.77233338356018 C 85.2127456665039 20.047247886657715 85.45011520385742 20.75633454322815 85.87478637695312 21.12854766845703 C 85.74556350708008 21.269906044006348 85.41816711425781 21.394742012023926 84.71244812011719 21.44293236732483 C 84.63109970092773 19.70807957649231 83.939208984375 17.969096183776855 81.17488861083984 17.949361085891724 C 79.41917419433594 17.93696928024292 77.11404800415039 19.349635124206543 75.97078323364258 21.857369422912598 C 75.85777282714844 21.971190452575684 75.50634384155273 22.511840343475342 74.4517707824707 22.413164854049683 C 74.11941528320312 22.381955862045288 73.84904861450195 22.325504302978516 73.65392684936523 22.028100967407227 C 73.83197784423828 19.982076168060303 73.64810943603516 18.80577254295349 72.73897171020508 18.486339330673218 C 72.38096237182617 18.3605854511261 71.47592544555664 18.439066886901855 71.146240234375 19.2491238117218 C 70.74417114257812 20.237714529037476 71.22596740722656 21.476895093917847 71.99872970581055 22.505414962768555 C 71.94437026977539 23.407721996307373 71.82201385498047 24.39126420021057 71.38370513916016 25.178832292556763 C 69.2388916015625 29.033142805099487 65.9516716003418 25.62860894203186 66.17082595825195 24.139297485351562 C 70.5537223815918 17.968637228012085 66.59902572631836 16.873109817504883 65.27284622192383 17.58540916442871 C 62.58567810058594 19.027907133102417 64.22351837158203 24.01124882698059 64.38383102416992 24.482596397399902 C 64.33443069458008 25.508362531661987 61.834564208984375 27.142245054244995 60.47309875488281 25.416112422943115 C 59.39868927001953 24.053931713104248 60.06101608276367 19.90772533416748 61.52204513549805 16.88091206550598 C 62.98297882080078 13.854098796844482 65.22001266479492 12.818694591522217 67.19249725341797 12.862295389175415 C 68.7501335144043 12.896717071533203 69.44393157958984 13.688415765762329 69.58297729492188 14.833510398864746 C 69.64630126953125 15.353966236114502 69.53805923461914 16.218179941177368 69.39767837524414 16.846490383148193 C 69.33740615844727 17.116356372833252 69.89625930786133 18.1815927028656 71.86864852905273 16.266829252243042 C 73.85324478149414 14.34013295173645 76.46259307861328 14.179957389831543 82.82598495483398 15.41546630859375 C 87.44939804077148 16.313183784484863 93.00922393798828 16.30216884613037 97.26642608642578 16.276926279067993 C 96.66637420654297 18.249977111816406 95.94396591186523 20.659953832626343 95.94396591186523 20.659953832626343 Z M 101.9755744934082 21.56180191040039 C 100.5722427368164 24.286622285842896 98.04977416992188 23.90247631072998 98.04977416992188 23.90247631072998 C 98.04977416992188 23.90247631072998 98.90750885009766 21.349305391311646 98.90750885009766 21.349305391311646 C 100.0031852722168 19.008630990982056 103.72871398925781 18.157727003097534 101.9755744934082 21.56180191040039 Z"/></g></svg>