<svg version="1.1" xmlns="http://www.w3.org/2000/svg" xmlns:xlink="http://www.w3.org/1999/xlink" width="142" height="15"><defs/><g><path fill="rgb(38,39,45)" stroke="none" paint-order="stroke fill markers" fill-rule="evenodd" d=" M 11.958881378173828 12.769272327423096 C 11.958881378173828 12.769272327423096 11.958881378173828 1.4413261413574219 11.958881378173828 1.4413261413574219 C 11.958881378173828 1.4413261413574219 9.302803039550781 1.4413261413574219 9.302803039550781 1.4413261413574219 C 9.302803039550781 1.4413261413574219 9.366889953613281 8.83326768875122 9.366889953613281 8.83326768875122 C 9.366889953613281 8.83326768875122 9.318824768066406 8.83326768875122 9.318824768066406 8.83326768875122 C 9.318824768066406 8.83326768875122 4.774852752685547 1.4413261413574219 4.774852752685547 1.4413261413574219 C 4.774852752685547 1.4413261413574219 1.6548118591308594 1.4413261413574219 1.6548118591308594 1.4413261413574219 C 1.6548118591308594 1.4413261413574219 1.6548118591308594 12.769272327423096 1.6548118591308594 12.769272327423096 C 1.6548118591308594 12.769272327423096 4.310890197753906 12.769272327423096 4.310890197753906 12.769272327423096 C 4.310890197753906 12.769272327423096 4.246803283691406 5.3617262840271 4.246803283691406 5.3617262840271 C 4.246803283691406 5.3617262840271 4.294868469238281 5.3617262840271 4.294868469238281 5.3617262840271 C 4.294868469238281 5.3617262840271 8.854862213134766 12.769272327423096 8.854862213134766 12.769272327423096 C 8.854862213134766 12.769272327423096 11.958881378173828 12.769272327423096 11.958881378173828 12.769272327423096 Z M 22.198768615722656 12.769272327423096 C 22.198768615722656 12.769272327423096 22.198768615722656 10.433646440505981 22.198768615722656 10.433646440505981 C 22.198768615722656 10.433646440505981 16.934772491455078 10.433646440505981 16.934772491455078 10.433646440505981 C 16.934772491455078 10.433646440505981 16.934772491455078 8.081498146057129 16.934772491455078 8.081498146057129 C 16.934772491455078 8.081498146057129 21.638771057128906 8.081498146057129 21.638771057128906 8.081498146057129 C 21.638771057128906 8.081498146057129 21.638771057128906 5.889525413513184 21.638771057128906 5.889525413513184 C 21.638771057128906 5.889525413513184 16.934772491455078 5.889525413513184 16.934772491455078 5.889525413513184 C 16.934772491455078 5.889525413513184 16.934772491455078 3.7457430362701416 16.934772491455078 3.7457430362701416 C 16.934772491455078 3.7457430362701416 21.91075897216797 3.7457430362701416 21.91075897216797 3.7457430362701416 C 21.91075897216797 3.7457430362701416 21.91075897216797 1.4413261413574219 21.91075897216797 1.4413261413574219 C 21.91075897216797 1.4413261413574219 14.294715881347656 1.4413261413574219 14.294715881347656 1.4413261413574219 C 14.294715881347656 1.4413261413574219 14.294715881347656 12.769272327423096 14.294715881347656 12.769272327423096 C 14.294715881347656 12.769272327423096 22.198768615722656 12.769272327423096 22.198768615722656 12.769272327423096 Z M 39.23863983154297 1.4413261413574219 C 39.23863983154297 1.4413261413574219 36.390682220458984 1.4413261413574219 36.390682220458984 1.4413261413574219 C 36.390682220458984 1.4413261413574219 34.56668472290039 8.97737979888916 34.56668472290039 8.97737979888916 C 34.56668472290039 8.97737979888916 34.518619537353516 8.97737979888916 34.518619537353516 8.97737979888916 C 34.518619537353516 8.97737979888916 32.48662567138672 1.4413261413574219 32.48662567138672 1.4413261413574219 C 32.48662567138672 1.4413261413574219 29.638668060302734 1.4413261413574219 29.638668060302734 1.4413261413574219 C 29.638668060302734 1.4413261413574219 27.622695922851562 8.97737979888916 27.622695922851562 8.97737979888916 C 27.622695922851562 8.97737979888916 27.574630737304688 8.97737979888916 27.574630737304688 8.97737979888916 C 27.574630737304688 8.97737979888916 25.782676696777344 1.4413261413574219 25.782676696777344 1.4413261413574219 C 25.782676696777344 1.4413261413574219 22.83868408203125 1.4413261413574219 22.83868408203125 1.4413261413574219 C 22.83868408203125 1.4413261413574219 26.054664611816406 12.769272327423096 26.054664611816406 12.769272327423096 C 26.054664611816406 12.769272327423096 28.774639129638672 12.769272327423096 28.774639129638672 12.769272327423096 C 28.774639129638672 12.769272327423096 31.014629364013672 5.105628967285156 31.014629364013672 5.105628967285156 C 31.014629364013672 5.105628967285156 31.062694549560547 5.105628967285156 31.062694549560547 5.105628967285156 C 31.062694549560547 5.105628967285156 33.30268478393555 12.769272327423096 33.30268478393555 12.769272327423096 C 33.30268478393555 12.769272327423096 36.00663757324219 12.769272327423096 36.00663757324219 12.769272327423096 C 36.00663757324219 12.769272327423096 39.23863983154297 1.4413261413574219 39.23863983154297 1.4413261413574219 Z M 40.614601135253906 12.769272327423096 C 40.614601135253906 12.769272327423096 42.19855880737305 12.769272327423096 42.19855880737305 12.769272327423096 C 42.19855880737305 12.769272327423096 42.19855880737305 7.79327392578125 42.19855880737305 7.79327392578125 C 42.19855880737305 7.79327392578125 43.99051284790039 7.79327392578125 43.99051284790039 7.79327392578125 C 44.577022552490234 7.79327392578125 45.12376403808594 7.7322328090667725 45.63054656982422 7.609691619873047 C 46.13704299926758 7.487150430679321 46.574588775634766 7.297601699829102 46.9425163269043 7.041504383087158 C 47.31053924560547 6.785407066345215 47.598548889160156 6.45541787147522 47.80654525756836 6.04924201965332 C 48.01454162597656 5.644443035125732 48.118587493896484 5.158867835998535 48.118587493896484 4.5934343338012695 C 48.118587493896484 4.039015769958496 48.022552490234375 3.564455509185791 47.8305778503418 3.1697535514831543 C 47.63860321044922 2.7750515937805176 47.366519927978516 2.4496519565582275 47.01451873779297 2.193554639816284 C 46.66251754760742 1.9374573230743408 46.235843658447266 1.7483675479888916 45.73459243774414 1.625826358795166 C 45.233055114746094 1.5032851696014404 44.6785888671875 1.4413261413574219 44.070526123046875 1.4413261413574219 C 44.070526123046875 1.4413261413574219 40.614601135253906 1.4413261413574219 40.614601135253906 1.4413261413574219 C 40.614601135253906 1.4413261413574219 40.614601135253906 12.769272327423096 40.614601135253906 12.769272327423096 Z M 42.19855880737305 2.7856075763702393 C 42.19855880737305 2.7856075763702393 43.91059494018555 2.7856075763702393 43.91059494018555 2.7856075763702393 C 44.28376770019531 2.7856075763702393 44.630523681640625 2.8149807453155518 44.95057678222656 2.8737270832061768 C 45.27053451538086 2.9324734210968018 45.54509735107422 3.0334436893463135 45.77455139160156 3.177555799484253 C 46.003814697265625 3.321208953857422 46.18501281738281 3.5080039501190186 46.31852722167969 3.7374818325042725 C 46.45185089111328 3.9669597148895264 46.51851272583008 4.251971244812012 46.51851272583008 4.5934343338012695 C 46.51851272583008 4.935356378555298 46.45452117919922 5.223121643066406 46.3265380859375 5.457648038864136 C 46.19855499267578 5.692633390426636 46.01707077026367 5.8812642097473145 45.782562255859375 6.025376319885254 C 45.547767639160156 6.169488430023193 45.26776885986328 6.276425123214722 44.94256591796875 6.345268487930298 C 44.6170768737793 6.415029764175415 44.262596130371094 6.449451446533203 43.8785514831543 6.449451446533203 C 43.8785514831543 6.449451446533203 42.19855880737305 6.449451446533203 42.19855880737305 6.449451446533203 C 42.19855880737305 6.449451446533203 42.19855880737305 2.7856075763702393 42.19855880737305 2.7856075763702393 Z M 51.718326568603516 7.729479074478149 C 51.718326568603516 7.729479074478149 53.41434097290039 7.729479074478149 53.41434097290039 7.729479074478149 C 53.41434097290039 7.729479074478149 56.294342041015625 12.769272327423096 56.294342041015625 12.769272327423096 C 56.294342041015625 12.769272327423096 58.21437454223633 12.769272327423096 58.21437454223633 12.769272327423096 C 58.21437454223633 12.769272327423096 55.046363830566406 7.569303512573242 55.046363830566406 7.569303512573242 C 55.85679626464844 7.430698871612549 56.51836013793945 7.105758190155029 57.03029251098633 6.593563556671143 C 57.542320251464844 6.081368923187256 57.79828643798828 5.409457683563232 57.79828643798828 4.577370882034302 C 57.79828643798828 4.0013813972473145 57.69157028198242 3.5135114192962646 57.478328704833984 3.113301992416382 C 57.264801025390625 2.7135515213012695 56.97431182861328 2.3909056186676025 56.60628890991211 2.145364284515381 C 56.23836135864258 1.9002819061279297 55.8088264465332 1.7217481136322021 55.31835174560547 1.6093039512634277 C 54.82759094238281 1.4973187446594238 54.31031799316406 1.4413261413574219 53.76634216308594 1.4413261413574219 C 53.76634216308594 1.4413261413574219 50.134368896484375 1.4413261413574219 50.134368896484375 1.4413261413574219 C 50.134368896484375 1.4413261413574219 50.134368896484375 12.769272327423096 50.134368896484375 12.769272327423096 C 50.134368896484375 12.769272327423096 51.718326568603516 12.769272327423096 51.718326568603516 12.769272327423096 C 51.718326568603516 12.769272327423096 51.718326568603516 7.729479074478149 51.718326568603516 7.729479074478149 Z M 51.718326568603516 2.7856075763702393 C 51.718326568603516 2.7856075763702393 53.6542854309082 2.7856075763702393 53.6542854309082 2.7856075763702393 C 53.99560546875 2.7856075763702393 54.32080841064453 2.8149807453155518 54.63037109375 2.8737270832061768 C 54.939552307128906 2.9324734210968018 55.20886993408203 3.0306899547576904 55.438323974609375 3.1697535514831543 C 55.66758728027344 3.307899236679077 55.8515510559082 3.4923994541168213 55.99031066894531 3.7214183807373047 C 56.12887954711914 3.9508962631225586 56.198307037353516 4.2363667488098145 56.198307037353516 4.577370882034302 C 56.198307037353516 4.91883397102356 56.12887954711914 5.204304456710815 55.99031066894531 5.433782339096069 C 55.8515510559082 5.662801265716553 55.6623420715332 5.849596261978149 55.42230224609375 5.993708372116089 C 55.18235778808594 6.137820482254028 54.90235900878906 6.241085529327393 54.582305908203125 6.305798292160034 C 54.26234817504883 6.369593143463135 53.915592193603516 6.40172004699707 53.54232406616211 6.40172004699707 C 53.54232406616211 6.40172004699707 51.718326568603516 6.40172004699707 51.718326568603516 6.40172004699707 C 51.718326568603516 6.40172004699707 51.718326568603516 2.7856075763702393 51.718326568603516 2.7856075763702393 Z M 70.9262809753418 4.665490388870239 C 70.62234497070312 3.934832811355591 70.20358657836914 3.3111119270324707 69.67029190063477 2.793409824371338 C 69.13680648803711 2.2761666774749756 68.50232696533203 1.8732035160064697 67.76628112792969 1.5854382514953613 C 67.03033065795898 1.2972140312194824 66.23029327392578 1.1535608768463135 65.36626434326172 1.1535608768463135 C 64.5023307800293 1.1535608768463135 63.70477294921875 1.2972140312194824 62.9743537902832 1.5854382514953613 C 62.243553161621094 1.8732035160064697 61.61155319213867 2.2761666774749756 61.07835388183594 2.793409824371338 C 60.54477310180664 3.3111119270324707 60.128780364990234 3.934832811355591 59.83028030395508 4.665490388870239 C 59.53158950805664 5.396147966384888 59.38233947753906 6.204369068145752 59.38233947753906 7.089235782623291 C 59.38233947753906 7.964464426040649 59.53158950805664 8.767178058624268 59.83028030395508 9.497835636138916 C 60.128780364990234 10.228493213653564 60.54477310180664 10.85726261138916 61.07835388183594 11.385520696640015 C 61.61155319213867 11.91377878189087 62.243553161621094 12.324085235595703 62.9743537902832 12.617357969284058 C 63.70477294921875 12.911089658737183 64.5023307800293 13.057496547698975 65.36626434326172 13.057496547698975 C 66.23029327392578 13.057496547698975 67.03033065795898 12.911089658737183 67.76628112792969 12.617357969284058 C 68.50232696533203 12.324085235595703 69.13680648803711 11.91377878189087 69.67029190063477 11.385520696640015 C 70.20358657836914 10.85726261138916 70.62234497070312 10.228493213653564 70.9262809753418 9.497835636138916 C 71.23031234741211 8.767178058624268 71.38232803344727 7.964464426040649 71.38232803344727 7.089235782623291 C 71.38232803344727 6.204369068145752 71.23031234741211 5.396147966384888 70.9262809753418 4.665490388870239 Z M 69.36626052856445 8.865853548049927 C 69.16350936889648 9.4202721118927 68.87559509277344 9.903093576431274 68.50232696533203 10.313400030136108 C 68.1287727355957 10.724165439605713 67.67558670043945 11.04681134223938 67.14229202270508 11.28179669380188 C 66.60880661010742 11.51632308959961 66.01676559448242 11.633356809616089 65.36626434326172 11.633356809616089 C 64.71557235717773 11.633356809616089 64.12877655029297 11.51632308959961 63.606353759765625 11.28179669380188 C 63.08354949951172 11.04681134223938 62.63551330566406 10.724165439605713 62.2623405456543 10.313400030136108 C 61.88878631591797 9.903093576431274 61.60077667236328 9.4202721118927 61.398311614990234 8.865853548049927 C 61.195560455322266 8.310976028442383 61.09428024291992 7.718923091888428 61.09428024291992 7.089235782623291 C 61.09428024291992 6.471022367477417 61.195560455322266 5.8867716789245605 61.398311614990234 5.337401628494263 C 61.60077667236328 4.788031578063965 61.88630676269531 4.305669069290161 62.254329681396484 3.8893961906433105 C 62.622352600097656 3.4735822677612305 63.07029342651367 3.145887851715088 63.59834289550781 2.9058539867401123 C 64.12629699707031 2.6658201217651367 64.71557235717773 2.5455737113952637 65.36626434326172 2.5455737113952637 C 66.02754211425781 2.5455737113952637 66.62234878540039 2.6658201217651367 67.15030288696289 2.9058539867401123 C 67.67835235595703 3.145887851715088 68.1287727355957 3.4735822677612305 68.50232696533203 3.8893961906433105 C 68.87559509277344 4.305669069290161 69.16350936889648 4.788031578063965 69.36626052856445 5.337401628494263 C 69.56882095336914 5.8867716789245605 69.67029190063477 6.471022367477417 69.67029190063477 7.089235782623291 C 69.67029190063477 7.718923091888428 69.56882095336914 8.310976028442383 69.36626052856445 8.865853548049927 Z M 73.70242691040039 1.4413261413574219 C 73.70242691040039 1.4413261413574219 71.94242095947266 1.4413261413574219 71.94242095947266 1.4413261413574219 C 71.94242095947266 1.4413261413574219 76.3584098815918 12.769272327423096 76.3584098815918 12.769272327423096 C 76.3584098815918 12.769272327423096 77.83040618896484 12.769272327423096 77.83040618896484 12.769272327423096 C 77.83040618896484 12.769272327423096 82.27843856811523 1.4413261413574219 82.27843856811523 1.4413261413574219 C 82.27843856811523 1.4413261413574219 80.56640243530273 1.4413261413574219 80.56640243530273 1.4413261413574219 C 80.56640243530273 1.4413261413574219 77.15835189819336 10.72141170501709 77.15835189819336 10.72141170501709 C 77.15835189819336 10.72141170501709 77.11038208007812 10.72141170501709 77.11038208007812 10.72141170501709 C 77.11038208007812 10.72141170501709 73.70242691040039 1.4413261413574219 73.70242691040039 1.4413261413574219 Z M 85.2064094543457 1.4413261413574219 C 85.2064094543457 1.4413261413574219 83.62235641479492 1.4413261413574219 83.62235641479492 1.4413261413574219 C 83.62235641479492 1.4413261413574219 83.62235641479492 12.769272327423096 83.62235641479492 12.769272327423096 C 83.62235641479492 12.769272327423096 85.2064094543457 12.769272327423096 85.2064094543457 12.769272327423096 C 85.2064094543457 12.769272327423096 85.2064094543457 1.4413261413574219 85.2064094543457 1.4413261413574219 Z M 87.95833206176758 12.769272327423096 C 87.95833206176758 12.769272327423096 91.84627151489258 12.769272327423096 91.84627151489258 12.769272327423096 C 92.57154083251953 12.769272327423096 93.29681015014648 12.65499234199524 94.02227020263672 12.425514459609985 C 94.74753952026367 12.196036577224731 95.40357208251953 11.849524974822998 95.99027252197266 11.385520696640015 C 96.5767822265625 10.921516418457031 97.05152130126953 10.334970951080322 97.41429901123047 9.625425338745117 C 97.77679061889648 8.916338682174683 97.9582748413086 8.076449632644653 97.9582748413086 7.105758190155029 C 97.9582748413086 6.10293984413147 97.77679061889648 5.24423360824585 97.41429901123047 4.529180526733398 C 97.05152130126953 3.8150453567504883 96.5767822265625 3.2284998893737793 95.99027252197266 2.7695441246032715 C 95.40357208251953 2.311047315597534 94.74753952026367 1.9750916957855225 94.02227020263672 1.7616772651672363 C 93.29681015014648 1.5482628345489502 92.57154083251953 1.4413261413574219 91.84627151489258 1.4413261413574219 C 91.84627151489258 1.4413261413574219 87.95833206176758 1.4413261413574219 87.95833206176758 1.4413261413574219 C 87.95833206176758 1.4413261413574219 87.95833206176758 12.769272327423096 87.95833206176758 12.769272327423096 Z M 89.54228973388672 2.8172755241394043 C 89.54228973388672 2.8172755241394043 91.52631378173828 2.8172755241394043 91.52631378173828 2.8172755241394043 C 92.2087631225586 2.8172755241394043 92.84076309204102 2.910902500152588 93.42231369018555 3.0976974964141846 C 94.00357818603516 3.2840335369110107 94.50482940673828 3.556194305419922 94.92635345458984 3.9137208461761475 C 95.34759140014648 4.2707884311676025 95.6755599975586 4.715975522994995 95.91025924682617 5.249741077423096 C 96.14476776123047 5.782588720321655 96.26226043701172 6.40172004699707 96.26226043701172 7.105758190155029 C 96.26226043701172 7.777669429779053 96.14476776123047 8.38027834892273 95.91025924682617 8.91358494758606 C 95.6755599975586 9.44735050201416 95.34759140014648 9.894832372665405 94.92635345458984 10.257407426834106 C 94.50482940673828 10.620441436767578 94.00357818603516 10.897650718688965 93.42231369018555 11.089494228363037 C 92.84076309204102 11.28179669380188 92.2087631225586 11.377718448638916 91.52631378173828 11.377718448638916 C 91.52631378173828 11.377718448638916 89.54228973388672 11.377718448638916 89.54228973388672 11.377718448638916 C 89.54228973388672 11.377718448638916 89.54228973388672 2.8172755241394043 89.54228973388672 2.8172755241394043 Z M 101.7180404663086 7.5858259201049805 C 101.7180404663086 7.5858259201049805 107.06204986572266 7.5858259201049805 107.06204986572266 7.5858259201049805 C 107.06204986572266 7.5858259201049805 107.06204986572266 6.225481033325195 107.06204986572266 6.225481033325195 C 107.06204986572266 6.225481033325195 101.7180404663086 6.225481033325195 101.7180404663086 6.225481033325195 C 101.7180404663086 6.225481033325195 101.7180404663086 2.8337979316711426 101.7180404663086 2.8337979316711426 C 101.7180404663086 2.8337979316711426 107.39812469482422 2.8337979316711426 107.39812469482422 2.8337979316711426 C 107.39812469482422 2.8337979316711426 107.39812469482422 1.4413261413574219 107.39812469482422 1.4413261413574219 C 107.39812469482422 1.4413261413574219 100.13408279418945 1.4413261413574219 100.13408279418945 1.4413261413574219 C 100.13408279418945 1.4413261413574219 100.13408279418945 12.769272327423096 100.13408279418945 12.769272327423096 C 100.13408279418945 12.769272327423096 107.63806915283203 12.769272327423096 107.63806915283203 12.769272327423096 C 107.63806915283203 12.769272327423096 107.63806915283203 11.361196041107178 107.63806915283203 11.361196041107178 C 107.63806915283203 11.361196041107178 101.7180404663086 11.361196041107178 101.7180404663086 11.361196041107178 C 101.7180404663086 11.361196041107178 101.7180404663086 7.5858259201049805 101.7180404663086 7.5858259201049805 Z M 111.81401824951172 1.4413261413574219 C 111.81401824951172 1.4413261413574219 109.75007629394531 1.4413261413574219 109.75007629394531 1.4413261413574219 C 109.75007629394531 1.4413261413574219 109.75007629394531 12.769272327423096 109.75007629394531 12.769272327423096 C 109.75007629394531 12.769272327423096 111.33403396606445 12.769272327423096 111.33403396606445 12.769272327423096 C 111.33403396606445 12.769272327423096 111.33403396606445 3.5213136672973633 111.33403396606445 3.5213136672973633 C 111.33403396606445 3.5213136672973633 111.3660774230957 3.5213136672973633 111.3660774230957 3.5213136672973633 C 111.3660774230957 3.5213136672973633 117.35009765625 12.769272327423096 117.35009765625 12.769272327423096 C 117.35009765625 12.769272327423096 119.35004806518555 12.769272327423096 119.35004806518555 12.769272327423096 C 119.35004806518555 12.769272327423096 119.35004806518555 1.4413261413574219 119.35004806518555 1.4413261413574219 C 119.35004806518555 1.4413261413574219 117.7660903930664 1.4413261413574219 117.7660903930664 1.4413261413574219 C 117.7660903930664 1.4413261413574219 117.7660903930664 10.497441291809082 117.7660903930664 10.497441291809082 C 117.7660903930664 10.497441291809082 117.73404693603516 10.497441291809082 117.73404693603516 10.497441291809082 C 117.73404693603516 10.497441291809082 111.81401824951172 1.4413261413574219 111.81401824951172 1.4413261413574219 Z M 130.5499038696289 10.145422220230103 C 130.20839309692383 10.636504888534546 129.7763786315918 11.009635925292969 129.2538604736328 11.265274286270142 C 128.73115158081055 11.521830558776855 128.14988708496094 11.649879217147827 127.5098762512207 11.649879217147827 C 126.85908889770508 11.649879217147827 126.26981353759766 11.532386541366577 125.74185943603516 11.297401189804077 C 125.21390533447266 11.063333749771118 124.765869140625 10.74022889137268 124.39784622192383 10.329463481903076 C 124.02982330322266 9.919157028198242 123.74715423583984 9.436335563659668 123.54983901977539 8.881458044052124 C 123.35233306884766 8.32703948020935 123.25381851196289 7.729479074478149 123.25381851196289 7.089235782623291 C 123.25381851196289 6.471022367477417 123.35509872436523 5.8867716789245605 123.5578498840332 5.337401628494263 C 123.76031494140625 4.788031578063965 124.04832458496094 4.305669069290161 124.42187881469727 3.8893961906433105 C 124.79514694213867 3.4735822677612305 125.24585342407227 3.145887851715088 125.7739028930664 2.9058539867401123 C 126.3018569946289 2.6658201217651367 126.89637756347656 2.5455737113952637 127.55784606933594 2.5455737113952637 C 128.14435577392578 2.5455737113952637 128.69109725952148 2.6708686351776123 129.19787979125977 2.9214584827423096 C 129.70437622070312 3.172048330307007 130.0963363647461 3.4891867637634277 130.3738555908203 3.8737916946411133 C 130.3738555908203 3.8737916946411133 131.62183380126953 2.9131972789764404 131.62183380126953 2.9131972789764404 C 131.4084014892578 2.625432014465332 131.15233993530273 2.3720884323120117 130.85383987426758 2.15362548828125 C 130.55514907836914 1.9351625442504883 130.2243194580078 1.7506623268127441 129.8618278503418 1.601501703262329 C 129.4991455078125 1.4518821239471436 129.12034606933594 1.3403558731079102 128.7259063720703 1.2655460834503174 C 128.33108520507812 1.1911952495574951 127.94189071655273 1.1535608768463135 127.55784606933594 1.1535608768463135 C 126.69381713867188 1.1535608768463135 125.89387512207031 1.2972140312194824 125.15782928466797 1.5854382514953613 C 124.42187881469727 1.8732035160064697 123.78434753417969 2.2761666774749756 123.24590301513672 2.793409824371338 C 122.70707702636719 3.3111119270324707 122.28583908081055 3.934832811355591 121.98190307617188 4.665490388870239 C 121.67787170410156 5.396147966384888 121.5258560180664 6.204369068145752 121.5258560180664 7.089235782623291 C 121.5258560180664 7.964464426040649 121.67510604858398 8.767178058624268 121.97389221191406 9.497835636138916 C 122.27239227294922 10.228493213653564 122.68590545654297 10.85726261138916 123.21385955810547 11.385520696640015 C 123.74181365966797 11.91377878189087 124.37114334106445 12.324085235595703 125.10184860229492 12.617357969284058 C 125.83236312866211 12.911089658737183 126.62982559204102 13.057496547698975 127.49385452270508 13.057496547698975 C 128.49635696411133 13.057496547698975 129.35514068603516 12.867947816848755 130.06982421875 12.489768266677856 C 130.78431701660156 12.110670804977417 131.3658676147461 11.617752313613892 131.81390380859375 11.009635925292969 C 131.81390380859375 11.009635925292969 130.5499038696289 10.145422220230103 130.5499038696289 10.145422220230103 Z M 135.01376724243164 7.5858259201049805 C 135.01376724243164 7.5858259201049805 140.3577766418457 7.5858259201049805 140.3577766418457 7.5858259201049805 C 140.3577766418457 7.5858259201049805 140.3577766418457 6.225481033325195 140.3577766418457 6.225481033325195 C 140.3577766418457 6.225481033325195 135.01376724243164 6.225481033325195 135.01376724243164 6.225481033325195 C 135.01376724243164 6.225481033325195 135.01376724243164 2.8337979316711426 135.01376724243164 2.8337979316711426 C 135.01376724243164 2.8337979316711426 140.69375610351562 2.8337979316711426 140.69375610351562 2.8337979316711426 C 140.69375610351562 2.8337979316711426 140.69375610351562 1.4413261413574219 140.69375610351562 1.4413261413574219 C 140.69375610351562 1.4413261413574219 133.42971420288086 1.4413261413574219 133.42971420288086 1.4413261413574219 C 133.42971420288086 1.4413261413574219 133.42971420288086 12.769272327423096 133.42971420288086 12.769272327423096 C 133.42971420288086 12.769272327423096 140.93370056152344 12.769272327423096 140.93370056152344 12.769272327423096 C 140.93370056152344 12.769272327423096 140.93370056152344 11.361196041107178 140.93370056152344 11.361196041107178 C 140.93370056152344 11.361196041107178 135.01376724243164 11.361196041107178 135.01376724243164 11.361196041107178 C 135.01376724243164 11.361196041107178 135.01376724243164 7.5858259201049805 135.01376724243164 7.5858259201049805 Z"/></g></svg>