<svg version="1.1" xmlns="http://www.w3.org/2000/svg" xmlns:xlink="http://www.w3.org/1999/xlink" width="13" height="20"><defs/><g><path fill="rgb(38,39,45)" stroke="none" paint-order="stroke fill markers" fill-rule="evenodd" d=" M 7.985393524169922 18.991816520690918 C 7.985393524169922 18.991816520690918 3.9872093200683594 18.991816520690918 3.9872093200683594 18.991816520690918 C 3.9872093200683594 18.991816520690918 3.9872093200683594 10.496086359024048 3.9872093200683594 10.496086359024048 C 3.9872093200683594 10.496086359024048 1.9889755249023438 10.496086359024048 1.9889755249023438 10.496086359024048 C 1.9889755249023438 10.496086359024048 1.9889755249023438 7.222354888916016 1.9889755249023438 7.222354888916016 C 1.9889755249023438 7.222354888916016 3.9872093200683594 7.222354888916016 3.9872093200683594 7.222354888916016 C 3.9872093200683594 7.222354888916016 3.9872093200683594 5.257565259933472 3.9872093200683594 5.257565259933472 C 3.9872093200683594 2.5891964435577393 5.115406036376953 1.0002915859222412 8.319561004638672 1.0002915859222412 C 8.319561004638672 1.0002915859222412 10.987846374511719 1.0002915859222412 10.987846374511719 1.0002915859222412 C 10.987846374511719 1.0002915859222412 10.987846374511719 4.273105144500732 10.987846374511719 4.273105144500732 C 10.987846374511719 4.273105144500732 9.320919036865234 4.273105144500732 9.320919036865234 4.273105144500732 C 8.073036193847656 4.273105144500732 7.9900665283203125 4.731142997741699 7.9900665283203125 5.584800720214844 C 7.9900665283203125 5.584800720214844 7.985393524169922 7.222354888916016 7.985393524169922 7.222354888916016 C 7.985393524169922 7.222354888916016 11.007110595703125 7.222354888916016 11.007110595703125 7.222354888916016 C 11.007110595703125 7.222354888916016 10.653297424316406 10.496086359024048 10.653297424316406 10.496086359024048 C 10.653297424316406 10.496086359024048 7.985393524169922 10.496086359024048 7.985393524169922 10.496086359024048 C 7.985393524169922 10.496086359024048 7.985393524169922 18.991816520690918 7.985393524169922 18.991816520690918 Z"/></g></svg>