<svg version="1.1" xmlns="http://www.w3.org/2000/svg" xmlns:xlink="http://www.w3.org/1999/xlink" width="27" height="17"><defs/><g><path fill="rgb(38,39,45)" stroke="none" paint-order="stroke fill markers" fill-rule="evenodd" d=" M 8.61502456665039 15.999030590057373 C 4.409702301025391 15.999030590057373 1.0006980895996094 12.641769170761108 1.0006980895996094 8.499693393707275 C 1.0006980895996094 4.358535528182983 4.409702301025391 1.0003561973571777 8.61502456665039 1.0003561973571777 C 10.595043182373047 1.0003561973571777 12.3975830078125 1.745241403579712 13.751705169677734 2.965604782104492 C 13.751705169677734 2.965604782104492 11.507614135742188 5.130040168762207 11.507614135742188 5.130040168762207 C 10.726936340332031 4.479240894317627 9.717948913574219 4.085456848144531 8.61502456665039 4.085456848144531 C 6.139762878417969 4.085456848144531 4.133232116699219 6.061720371246338 4.133232116699219 8.499693393707275 C 4.133232116699219 10.937666416168213 6.139762878417969 12.91392993927002 8.61502456665039 12.91392993927002 C 10.530097961425781 12.91392993927002 12.163742065429688 11.73074197769165 12.805564880371094 10.065650463104248 C 12.805564880371094 10.065650463104248 8.518608093261719 10.065650463104248 8.518608093261719 10.065650463104248 C 8.518608093261719 10.065650463104248 8.518608093261719 6.933736324310303 8.518608093261719 6.933736324310303 C 8.518608093261719 6.933736324310303 12.805564880371094 6.933736324310303 12.805564880371094 6.933736324310303 C 12.805564880371094 6.933736324310303 16.03670883178711 6.933736324310303 16.03670883178711 6.933736324310303 C 16.03670883178711 6.933736324310303 16.06255340576172 6.933736324310303 16.06255340576172 6.933736324310303 C 16.171653747558594 7.439046621322632 16.229351043701172 7.962715148925781 16.229351043701172 8.499693393707275 C 16.229351043701172 12.641769170761108 12.820442199707031 15.999030590057373 8.61502456665039 15.999030590057373 Z M 25.000293731689453 9.069716453552246 C 25.000293731689453 9.069716453552246 22.349842071533203 9.069716453552246 22.349842071533203 9.069716453552246 C 22.349842071533203 9.069716453552246 22.349842071533203 11.680256843566895 22.349842071533203 11.680256843566895 C 22.349842071533203 11.680256843566895 20.42208480834961 11.680256843566895 20.42208480834961 11.680256843566895 C 20.42208480834961 11.680256843566895 20.42208480834961 9.069716453552246 20.42208480834961 9.069716453552246 C 20.42208480834961 9.069716453552246 17.77153778076172 9.069716453552246 17.77153778076172 9.069716453552246 C 17.77153778076172 9.069716453552246 17.77153778076172 7.171016454696655 17.77153778076172 7.171016454696655 C 17.77153778076172 7.171016454696655 20.42208480834961 7.171016454696655 20.42208480834961 7.171016454696655 C 20.42208480834961 7.171016454696655 20.42208480834961 4.560476064682007 20.42208480834961 4.560476064682007 C 20.42208480834961 4.560476064682007 22.349842071533203 4.560476064682007 22.349842071533203 4.560476064682007 C 22.349842071533203 4.560476064682007 22.349842071533203 7.171016454696655 22.349842071533203 7.171016454696655 C 22.349842071533203 7.171016454696655 25.000293731689453 7.171016454696655 25.000293731689453 7.171016454696655 C 25.000293731689453 7.171016454696655 25.000293731689453 9.069716453552246 25.000293731689453 9.069716453552246 Z"/></g></svg>