<svg version="1.1" xmlns="http://www.w3.org/2000/svg" xmlns:xlink="http://www.w3.org/1999/xlink" width="19" height="18"><defs/><g><path fill="rgb(38,39,45)" stroke="none" paint-order="stroke fill markers" fill-rule="evenodd" d=" M 4.639606475830078 16.008209705352783 C 4.639606475830078 16.008209705352783 4.639606475830078 5.889153003692627 4.639606475830078 5.889153003692627 C 4.639606475830078 5.889153003692627 1.2118148803710938 5.889153003692627 1.2118148803710938 5.889153003692627 C 1.2118148803710938 5.889153003692627 1.2118148803710938 16.008209705352783 1.2118148803710938 16.008209705352783 C 1.2118148803710938 16.008209705352783 4.639606475830078 16.008209705352783 4.639606475830078 16.008209705352783 C 4.639606475830078 16.008209705352783 4.639606475830078 16.008209705352783 4.639606475830078 16.008209705352783 Z M 2.9257583618164062 4.507696151733398 C 4.121952056884766 4.507696151733398 4.865245819091797 3.731142997741699 4.865245819091797 2.7599925994873047 C 4.844169616699219 1.7672712802886963 4.121952056884766 1.01137113571167 2.9485511779785156 1.01137113571167 C 1.775054931640625 1.01137113571167 1.0089683532714844 1.7672712802886963 1.0089683532714844 2.7599925994873047 C 1.0089683532714844 3.731142997741699 1.7523574829101562 4.507696151733398 2.9030609130859375 4.507696151733398 C 2.9030609130859375 4.507696151733398 2.9257583618164062 4.507696151733398 2.9257583618164062 4.507696151733398 C 2.9257583618164062 4.507696151733398 2.9257583618164062 4.507696151733398 2.9257583618164062 4.507696151733398 Z M 6.538658142089844 16.008209705352783 C 6.538658142089844 16.008209705352783 9.968070983886719 16.008209705352783 9.968070983886719 16.008209705352783 C 9.968070983886719 16.008209705352783 9.968070983886719 10.35708737373352 9.968070983886719 10.35708737373352 C 9.968070983886719 10.055553436279297 9.989147186279297 9.752183675765991 10.081653594970703 9.536933422088623 C 10.32827377319336 8.931570768356323 10.893135070800781 8.306473016738892 11.839370727539062 8.306473016738892 C 13.0810546875 8.306473016738892 13.577728271484375 9.234940528869629 13.577728271484375 10.595285415649414 C 13.577728271484375 10.595285415649414 13.577728271484375 16.008209705352783 13.577728271484375 16.008209705352783 C 13.577728271484375 16.008209705352783 17.00714111328125 16.008209705352783 17.00714111328125 16.008209705352783 C 17.00714111328125 16.008209705352783 17.00714111328125 10.206090927124023 17.00714111328125 10.206090927124023 C 17.00714111328125 7.0971245765686035 15.314273834228516 5.652331829071045 13.058357238769531 5.652331829071045 C 11.208038330078125 5.652331829071045 10.396556854248047 6.666165113449097 9.94537353515625 7.356893539428711 C 9.94537353515625 7.356893539428711 9.968070983886719 7.356893539428711 9.968070983886719 7.356893539428711 C 9.968070983886719 7.356893539428711 9.968070983886719 5.889153003692627 9.968070983886719 5.889153003692627 C 9.968070983886719 5.889153003692627 6.538658142089844 5.889153003692627 6.538658142089844 5.889153003692627 C 6.584148406982422 6.838273525238037 6.538658142089844 16.008209705352783 6.538658142089844 16.008209705352783 C 6.538658142089844 16.008209705352783 6.538658142089844 16.008209705352783 6.538658142089844 16.008209705352783 Z"/></g></svg>