<svg version="1.1" xmlns="http://www.w3.org/2000/svg" xmlns:xlink="http://www.w3.org/1999/xlink" width="18" height="21"><defs/><g><path fill="rgb(38,39,45)" stroke="none" paint-order="stroke fill markers" fill-rule="evenodd" d=" M 7.7401123046875 13.24569034576416 C 7.267566680908203 15.588200569152832 6.690402984619141 17.834330081939697 4.980846405029297 19.007879972457886 C 4.453178405761719 15.467036247253418 5.755897521972656 12.807846546173096 6.3607177734375 9.984809637069702 C 5.3296051025390625 8.343583822250366 6.4846954345703125 5.040020227432251 8.660026550292969 5.854207754135132 C 11.336418151855469 6.855190277099609 6.341930389404297 11.956024646759033 9.69485855102539 12.593973159790039 C 13.195415496826172 13.259000062942505 14.624496459960938 6.851059675216675 12.453838348388672 4.766941547393799 C 9.317680358886719 1.7580275535583496 3.32421875 4.698557138442993 4.061313629150391 9.00677490234375 C 4.240604400634766 10.060078382492065 5.391307830810547 10.379511594772339 4.521080017089844 11.832565546035767 C 2.5138816833496094 11.412621021270752 1.9145927429199219 9.915507316589355 1.9918403625488281 7.919508695602417 C 2.116008758544922 4.653120517730713 5.095954895019531 2.365684986114502 8.0849609375 2.049464464187622 C 11.865135192871094 1.6487960815429688 15.412899017333984 3.361618995666504 15.902801513671875 6.723928928375244 C 16.45440673828125 10.519034147262573 14.196773529052734 14.62898302078247 10.154434204101562 14.332956552505493 C 9.058948516845703 14.252180337905884 8.598705291748047 13.739526748657227 7.7401123046875 13.24569034576416 Z"/></g></svg>