<svg version="1.1" xmlns="http://www.w3.org/2000/svg" xmlns:xlink="http://www.w3.org/1999/xlink" width="13" height="20"><defs/><g><path fill="rgb(38,39,45)" stroke="none" paint-order="stroke fill markers" fill-rule="evenodd" d=" M 10.497032165527344 14.783192157745361 C 10.205970764160156 14.925009489059448 9.648738861083984 15.048468589782715 9.233413696289062 15.059483528137207 C 7.979618072509766 15.094364166259766 7.988010406494141 13.87813138961792 7.97723388671875 13.199335813522339 C 7.97723388671875 13.199335813522339 7.97723388671875 8.400035381317139 7.97723388671875 8.400035381317139 C 7.97723388671875 8.400035381317139 10.99990463256836 8.400035381317139 10.99990463256836 8.400035381317139 C 10.99990463256836 8.400035381317139 10.99990463256836 5.999696731567383 10.99990463256836 5.999696731567383 C 10.99990463256836 5.999696731567383 7.97723388671875 5.999696731567383 7.97723388671875 5.999696731567383 C 7.97723388671875 5.999696731567383 7.97723388671875 1.9998972415924072 7.97723388671875 1.9998972415924072 C 7.97723388671875 1.9998972415924072 5.1371917724609375 2.0044867992401123 5.099521636962891 2.0044867992401123 C 5.062042236328125 2.0044867992401123 4.996238708496094 2.03844952583313 4.9868927001953125 2.1247332096099854 C 4.852806091308594 3.371716022491455 4.375396728515625 5.125385999679565 1.9998893737792969 5.999696731567383 C 1.9998893737792969 5.999696731567383 1.9997940063476562 8.403248071670532 1.9997940063476562 8.403248071670532 C 1.9997940063476562 8.403248071670532 3.9800987243652344 8.400035381317139 3.9800987243652344 8.400035381317139 C 3.9800987243652344 8.400035381317139 3.9800987243652344 14.000672578811646 3.9800987243652344 14.000672578811646 C 3.9800987243652344 15.789682149887085 5.12689208984375 18.0615131855011 8.538375854492188 18.001848936080933 C 9.68936538696289 17.9821138381958 10.967575073242188 17.489195346832275 11.25033950805664 17.065120220184326 C 11.25033950805664 17.065120220184326 10.497032165527344 14.783192157745361 10.497032165527344 14.783192157745361 Z"/></g></svg>