<svg version="1.1" xmlns="http://www.w3.org/2000/svg" xmlns:xlink="http://www.w3.org/1999/xlink" width="19" height="16"><defs/><g><path fill="rgb(38,39,45)" stroke="none" paint-order="stroke fill markers" fill-rule="evenodd" d=" M 17.999778747558594 2.6581690311431885 C 17.374835968017578 2.9390499591827393 16.70220947265625 3.128598690032959 15.996967315673828 3.2148823738098145 C 16.716896057128906 2.7774975299835205 17.26974105834961 2.0844743251800537 17.529903411865234 1.2601897716522217 C 16.855560302734375 1.6649887561798096 16.11016845703125 1.959179401397705 15.315376281738281 2.1175191402435303 C 14.679466247558594 1.4300034046173096 13.773475646972656 1.0008797645568848 12.769828796386719 1.0008797645568848 C 10.843597412109375 1.0008797645568848 9.282432556152344 2.582900285720825 9.282432556152344 4.534839153289795 C 9.282432556152344 4.812507390975952 9.313522338867188 5.08191442489624 9.372840881347656 5.340765476226807 C 6.475006103515625 5.193440675735474 3.9055213928222656 3.7862823009490967 2.1855697631835938 1.6480073928833008 C 1.8854484558105469 2.169840097427368 1.7138824462890625 2.7774975299835205 1.7138824462890625 3.425084114074707 C 1.7138824462890625 4.650954961776733 2.3297653198242188 5.733172655105591 3.265033721923828 6.366531610488892 C 2.6929244995117188 6.34725546836853 2.155529022216797 6.188456773757935 1.6855583190917969 5.924098253250122 C 1.6855583190917969 5.939702749252319 1.6855583190917969 5.953930377960205 1.6855583190917969 5.968616962432861 C 1.6855583190917969 7.680980920791626 2.887187957763672 9.108792304992676 4.483066558837891 9.434191942214966 C 4.190288543701172 9.514509201049805 3.882823944091797 9.558568954467773 3.5642967224121094 9.558568954467773 C 3.339801788330078 9.558568954467773 3.120838165283203 9.536080121994019 2.90826416015625 9.494315147399902 C 3.3517227172851562 10.898260831832886 4.64013671875 11.919896364212036 6.1656341552734375 11.948351621627808 C 4.972110748291016 12.896095275878906 3.4684524536132812 13.46061086654663 1.8343315124511719 13.46061086654663 C 1.5533790588378906 13.46061086654663 1.2750015258789062 13.445006370544434 1.0021553039550781 13.412420511245728 C 2.54510498046875 14.414320945739746 4.378162384033203 14.999489545822144 6.348072052001953 14.999489545822144 C 12.76248550415039 14.999489545822144 16.269813537597656 9.614561557769775 16.269813537597656 4.945145606994629 C 16.269813537597656 4.791395425796509 16.266189575195312 4.639481067657471 16.25979995727539 4.488484621047974 C 16.941295623779297 3.9895997047424316 17.532669067382812 3.367255687713623 17.999778747558594 2.6590869426727295 C 17.999778747558594 2.6590869426727295 17.999778747558594 2.6581690311431885 17.999778747558594 2.6581690311431885 Z"/></g></svg>